HIERARCHY
ROOT hip
{
	OFFSET 0.000000 0.000000 0.000000 
	CHANNELS 6 Xposition Yposition Zposition Xrotation Zrotation Yrotation
	JOINT abdomen
	{
		OFFSET 0.000000 3.402643 0.000000 
		CHANNELS 3 Xrotation Zrotation Yrotation
		JOINT chest
		{
			OFFSET 0.000000 8.438565 -0.680529 
			CHANNELS 3 Xrotation Zrotation Yrotation
			JOINT neck
			{
				OFFSET 0.000000 10.207942 -0.272212 
				CHANNELS 3 Xrotation Zrotation Yrotation
				JOINT head
				{
					OFFSET 0.000000 3.130431 0.000000 
					CHANNELS 3 Xrotation Zrotation Yrotation
					End Site
					{
						OFFSET 0.000000 3.130435 0.000000 
					}
				}
			}
			JOINT lCollar
			{
				OFFSET 3.470700 6.669187 -0.816635 
				CHANNELS 3 Yrotation Zrotation Xrotation
				JOINT lShldr
				{
					OFFSET 3.198488 0.000000 0.000000 
					CHANNELS 3 Zrotation Yrotation Xrotation
					JOINT lForeArm
					{
						OFFSET 10.139888 0.000000 0.000000 
						CHANNELS 3 Yrotation Zrotation Xrotation
						JOINT lHand
						{
							OFFSET 8.370511 0.000000 0.000000 
							CHANNELS 3 Zrotation Yrotation Xrotation
							End Site
							{
								OFFSET 4.083176 0.000000 0.000000 
							}
						}
					}
				}
			}
			JOINT rCollar
			{
				OFFSET -3.470700 6.669187 -0.816635 
				CHANNELS 3 Yrotation Zrotation Xrotation
				JOINT rShldr
				{
					OFFSET -3.198488 0.000000 0.000000 
					CHANNELS 3 Zrotation Yrotation Xrotation
					JOINT rForeArm
					{
						OFFSET -10.139888 0.000000 0.000000 
						CHANNELS 3 Yrotation Zrotation Xrotation
						JOINT rHand
						{
							OFFSET -8.370511 0.000000 0.000000 
							CHANNELS 3 Zrotation Yrotation Xrotation
							End Site
							{
								OFFSET -4.083176 0.000000 0.000000 
							}
						}
					}
				}
			}
		}
	}
	JOINT lThigh
	{
		OFFSET 5.308129 -1.633274 1.361059 
		CHANNELS 3 Xrotation Zrotation Yrotation
		JOINT lShin
		{
			OFFSET -2.041588 -20.007561 0.000000 
			CHANNELS 3 Xrotation Zrotation Yrotation
			JOINT lFoot
			{
				OFFSET 0.000000 -19.190928 -1.224953 
				CHANNELS 3 Xrotation Yrotation Zrotation
				End Site
				{
					OFFSET 0.000000 -2.449906 4.627600 
				}
			}
		}
	}
	JOINT rThigh
	{
		OFFSET -5.308129 -1.633274 1.361059 
		CHANNELS 3 Xrotation Zrotation Yrotation
		JOINT rShin
		{
			OFFSET 2.041588 -20.007561 0.000000 
			CHANNELS 3 Xrotation Zrotation Yrotation
			JOINT rFoot
			{
				OFFSET 0.000000 -19.190928 -1.224953 
				CHANNELS 3 Xrotation Yrotation Zrotation
				End Site
				{
					OFFSET 0.000000 -2.449906 4.627600 
				}
			}
		}
	}
}
MOTION
Frames: 6
Frame Time: 0.016667
-0.075412 53.449730 -2.090762 -0.075870 -8.359135 -42.210987 19.999418 10.875564 -5.311016 2.256842 3.306373 -15.260799 5.538773 9.359340 0.594168 8.841269 -9.245278 48.710640 -31.424402 -0.007195 -0.006633 -52.375072 -12.000636 2.104574 -108.707420 -5.000000 -6.378263 -13.965110 -9.419178 22.241196 -0.844990 -3.644938 0.191235 38.325626 -4.236238 -5.448478 112.761345 5.000000 -9.503035 9.681764 -28.771769 11.431322 20.630119 11.025609 33.647911 6.215302 -4.212187 -0.603440 -15.388518 15.645884 -5.573461 2.165695 -4.310676 32.660961 -2.411009 3.957693 -0.040917 3.157360 -11.321155 8.273750 
-0.109566 53.435837 -2.066788 0.262272 -8.400260 -43.271473 19.962908 11.028612 -5.506501 2.303747 3.390029 -15.662998 5.617344 9.569224 0.612771 8.815273 -9.242599 48.982288 -31.658764 0.217150 0.004945 -53.074539 -12.560986 2.487035 -108.944191 -5.000000 -6.579194 -14.338928 -9.063201 22.585779 -1.401566 -3.664444 0.192245 38.905704 -5.577468 -6.130843 113.857414 5.000000 -9.979362 10.053170 -29.112019 10.426608 20.739475 10.918129 34.304123 6.246564 -4.184207 -0.575366 -15.602252 15.958425 -5.428353 1.776743 -4.079939 33.492107 -2.324656 4.077289 -0.020275 3.234238 -11.252097 8.126974 
-0.177830 53.408073 -2.018869 0.934787 -8.469592 -45.396072 19.906435 11.343421 -5.896800 2.409297 3.537622 -16.446804 5.783305 9.987544 0.640476 8.763401 -9.239756 49.534817 -32.127625 0.665838 0.028099 -54.489746 -13.656404 3.301883 -109.435165 -5.000000 -7.002366 -15.083557 -8.355061 23.277603 -2.504886 -3.722959 0.195273 40.114372 -8.244284 -7.536045 116.037125 5.000000 -10.932905 10.838509 -29.762304 8.414413 20.959555 10.733377 35.614929 6.320960 -4.124830 -0.569236 -16.021252 16.603527 -5.168051 0.995260 -3.580803 35.159229 -2.167482 4.251378 0.005038 3.364302 -11.072652 7.875970 
-0.246095 53.380299 -1.970951 1.617065 -8.514756 -47.521778 19.867527 11.648644 -6.290187 2.511484 3.684259 -17.240410 5.951902 10.407252 0.677716 8.720465 -9.234006 50.088554 -32.606602 1.119017 0.059982 -55.935329 -14.730973 4.136289 -109.934097 -5.000000 -7.436196 -15.800644 -7.624372 23.959131 -3.608203 -3.781475 0.198301 41.406559 -10.875264 -9.007459 118.210846 5.000000 -11.888211 11.692173 -30.000000 6.363533 21.181267 10.538465 36.930511 6.392584 -4.086892 -0.543627 -16.430986 17.180885 -4.885052 0.233097 -3.052794 36.810112 -2.011200 4.436082 0.049272 3.511780 -10.922592 7.616440 
-0.317656 53.358437 -1.972284 2.078763 -8.438361 -49.400280 19.850561 11.689777 -6.729335 2.666092 3.992798 -18.007454 5.980278 10.701152 0.664203 8.644777 -9.371221 50.285686 -32.831367 1.436395 0.067852 -57.233196 -16.034010 5.144285 -110.280975 -5.000000 -7.881238 -16.321461 -6.960498 25.208067 -4.595364 -3.722177 0.185559 43.024971 -13.699474 -10.919027 120.196724 5.000000 -12.775867 13.671589 -30.000000 2.940695 21.374811 10.284012 37.980873 6.387947 -4.112350 -0.544574 -16.546329 17.802128 -4.805144 -0.461984 -2.658972 38.314812 -1.788077 4.634400 0.039542 3.564022 -10.841570 7.419273 
-0.389215 53.336575 -1.973615 2.559195 -8.353151 -51.290703 19.842951 11.721648 -7.171312 2.822849 4.309394 -18.775532 6.018509 10.995050 0.650716 8.577810 -9.507071 50.484753 -33.066162 1.758265 0.084450 -58.575485 -17.306215 6.199650 -110.628868 -5.000000 -8.337923 -16.821062 -6.275395 26.454252 -5.572080 -3.673249 0.183050 44.755783 -16.459915 -12.932889 122.164955 5.000000 -13.657261 15.631847 -29.737940 -0.452393 21.559401 10.020423 39.036285 6.419692 -4.153036 -0.558038 -16.662382 18.501287 -4.678971 -1.154324 -2.269764 39.784420 -1.550247 4.831814 0.052485 3.549034 -10.659447 7.285227 
